<svg width="32" height="32" viewBox="0 0 32 32" fill="none" xmlns="http://www.w3.org/2000/svg">
    <path d="M29.333 12v8c0 3.333-.666 5.667-2.16 7.173l-8.506-8.506L28.973 8.36c.24 1.053.36 2.253.36 3.64zM28.973 8.36 8.36 28.973C4.347 28.053 2.667 25.28 2.667 20v-8c0-6.667 2.666-9.333 9.333-9.333h8c5.28 0 8.053 1.68 8.973 5.693z" stroke="#000" stroke-width="2" stroke-linecap="round" stroke-linejoin="round"/>
    <path d="M27.173 27.173c-1.506 1.494-3.84 2.16-7.173 2.16h-8c-1.387 0-2.587-.12-3.64-.36l10.307-10.306 8.506 8.506z" stroke="#000" stroke-width="2" stroke-linecap="round" stroke-linejoin="round"/>
    <path d="M8.32 10.64c.907-3.907 6.773-3.907 7.68 0 .52 2.293-.92 4.24-2.187 5.44a2.4 2.4 0 0 1-3.306 0c-1.267-1.2-2.72-3.147-2.187-5.44z" stroke="#000" stroke-width="2"/>
    <path d="M12.126 11.6h.012" stroke="#000" stroke-width="2" stroke-linecap="round" stroke-linejoin="round"/>
</svg>
