<svg width="32" height="32" viewBox="0 0 32 32" fill="none" xmlns="http://www.w3.org/2000/svg">
    <path d="M22.533 29.333H9.467A4.145 4.145 0 0 1 5.333 25.2V6.8a4.145 4.145 0 0 1 4.134-4.133h13.066A4.146 4.146 0 0 1 26.667 6.8v18.4a4.137 4.137 0 0 1-4.134 4.133z" stroke="#000" stroke-width="2" stroke-linecap="round" stroke-linejoin="round"/>
    <path d="M24.667 17.333H7.333c-1.106 0-2-.893-2-2v-2.666c0-1.107.894-2 2-2h17.334c1.106 0 2 .893 2 2v2.666c0 1.107-.894 2-2 2zM11.326 23.6h.012M20.66 23.6h.011M12.667 6.667h6.666" stroke="#000" stroke-width="2" stroke-linecap="round" stroke-linejoin="round"/>
</svg>
