<svg width="32" height="32" viewBox="0 0 32 32" fill="none" xmlns="http://www.w3.org/2000/svg">
<path d="M9 20L13 14" stroke="black" stroke-width="2" stroke-miterlimit="10" stroke-linecap="round" stroke-linejoin="round"/>
<path d="M25.3714 8H26.6286C27.3829 8 28 8.61715 28 9.37142V10.6285C28 11.3828 27.3829 12 26.6286 12H25.3714C24.6171 12 24 11.3828 24 10.6285V9.37142C24 8.61715 24.6171 8 25.3714 8Z" stroke="black" stroke-width="2" stroke-linecap="round" stroke-linejoin="round"/>
<path d="M19.3714 18H20.6286C21.3829 18 22 18.6171 22 19.3714V20.6285C22 21.3828 21.3829 22 20.6286 22H19.3714C18.6171 22 18 21.3828 18 20.6285V19.3714C18 18.6171 18.6171 18 19.3714 18Z" stroke="black" stroke-width="2" stroke-linecap="round" stroke-linejoin="round"/>
<path d="M21 18L25 12" stroke="black" stroke-width="2" stroke-miterlimit="10" stroke-linecap="round" stroke-linejoin="round"/>
<path d="M16.2734 14.268L18.3947 17.9423" stroke="black" stroke-width="2" stroke-miterlimit="10" stroke-linecap="round" stroke-linejoin="round"/>
<path d="M13.3714 10H14.6286C15.3829 10 16 10.6171 16 11.3714V12.6285C16 13.3828 15.3829 14 14.6286 14H13.3714C12.6171 14 12 13.3828 12 12.6285V11.3714C12 10.6171 12.6171 10 13.3714 10Z" stroke="black" stroke-width="2" stroke-linecap="round" stroke-linejoin="round"/>
<path d="M7.37143 20H8.62858C9.38286 20 10 20.6171 10 21.3714V22.6285C10 23.3828 9.38286 24 8.62858 24H7.37143C6.61714 24 6 23.3828 6 22.6285V21.3714C6 20.6171 6.61714 20 7.37143 20Z" stroke="black" stroke-width="2" stroke-linecap="round" stroke-linejoin="round"/>
<path d="M2 2V25.9459C2 28.1892 3.80819 30 6.04819 30H30" stroke="black" stroke-width="2" stroke-miterlimit="10" stroke-linecap="round" stroke-linejoin="round"/>
</svg>
