<svg width="48" height="48" viewBox="0 0 48 48" fill="none" xmlns="http://www.w3.org/2000/svg">
<rect width="48" height="48" rx="8" fill="white"/>
<path d="M10.7599 14.1333C11.8266 9.52001 18.7732 9.52001 19.8266 14.1333C20.4532 16.84 18.7332 19.1333 17.2399 20.56C16.1466 21.6 14.4266 21.5867 13.3332 20.56C11.8532 19.1333 10.1332 16.84 10.7599 14.1333Z" stroke="black" stroke-width="2"/>
<path d="M28.0933 30.1333C29.16 25.52 36.1467 25.52 37.2133 30.1333C37.84 32.84 36.12 35.1333 34.6133 36.56C33.52 37.6 31.7867 37.5867 30.6933 36.56C29.1867 35.1333 27.4667 32.84 28.0933 30.1333Z" stroke="black" stroke-width="2"/>
<path d="M24 14.6665H27.5733C30.04 14.6665 31.1867 17.7198 29.3333 19.3465L18.68 28.6665C16.8267 30.2798 17.9733 33.3332 20.4267 33.3332H24" stroke="black" stroke-width="2" stroke-linecap="round" stroke-linejoin="round"/>
<path d="M15.315 15.3332H15.3304" stroke="black" stroke-width="2" stroke-linecap="round" stroke-linejoin="round"/>
<path d="M32.6482 31.3332H32.6636" stroke="black" stroke-width="2" stroke-linecap="round" stroke-linejoin="round"/>
</svg>
