<svg width="32" height="32" viewBox="0 0 32 32" fill="none" xmlns="http://www.w3.org/2000/svg">
    <path d="M14.333 30h3.36c1.28 0 2.107-.907 1.867-2.013l-.547-2.414h-6l-.546 2.414c-.24 1.04.666 2.013 1.866 2.013zM19.013 25.56l2.307-2.053c1.293-1.147 1.347-1.947.32-3.24l-4.067-5.16c-.853-1.08-2.253-1.08-3.106 0l-4.067 5.16c-1.027 1.293-1.027 2.133.32 3.24l2.307 2.053M16.013 14.827V18.2M14.867 6.92l-1.04-1.04a1.601 1.601 0 0 1 0-2.267l1.04-1.04a1.601 1.601 0 0 1 2.266 0l1.04 1.04c.627.627.627 1.64 0 2.267l-1.04 1.04a1.601 1.601 0 0 1-2.266 0zM25.933 13.08H27.4c.88 0 1.6.72 1.6 1.6v1.467c0 .88-.72 1.6-1.6 1.6h-1.467c-.88 0-1.6-.72-1.6-1.6V14.68c0-.88.72-1.6 1.6-1.6zM6.067 13.08H4.6c-.88 0-1.6.72-1.6 1.6v1.467c0 .88.72 1.6 1.6 1.6h1.467c.88 0 1.6-.72 1.6-1.6V14.68c0-.88-.72-1.6-1.6-1.6zM24.72 13.467 17.653 6.4M7.28 13.467 14.347 6.4" stroke="#000" stroke-width="2" stroke-linecap="round" stroke-linejoin="round"/>
</svg>
