<svg width="32" height="32" viewBox="0 0 32 32" fill="none" xmlns="http://www.w3.org/2000/svg">
    <path d="M20 2.667V16c0 1.467-1.2 2.667-2.667 2.667H2.667V8A5.332 5.332 0 0 1 8 2.667h12z" stroke="#000" stroke-width="2" stroke-linecap="round" stroke-linejoin="round"/>
    <path d="M29.333 18.667v4c0 2.213-1.786 4-4 4H24C24 25.2 22.8 24 21.333 24a2.675 2.675 0 0 0-2.666 2.667h-5.334c0-1.467-1.2-2.667-2.666-2.667A2.675 2.675 0 0 0 8 26.667H6.667c-2.214 0-4-1.787-4-4v-4h14.666C18.8 18.667 20 17.467 20 16V6.667h2.453c.96 0 1.84.52 2.32 1.346L27.053 12h-1.72C24.6 12 24 12.6 24 13.333v4c0 .734.6 1.334 1.333 1.334h4z" stroke="#000" stroke-width="2" stroke-linecap="round" stroke-linejoin="round"/>
    <path d="M10.667 29.333a2.667 2.667 0 1 0 0-5.333 2.667 2.667 0 0 0 0 5.333zM21.333 29.333a2.667 2.667 0 1 0 0-5.333 2.667 2.667 0 0 0 0 5.333zM29.333 16v2.667h-4c-.733 0-1.333-.6-1.333-1.334v-4C24 12.6 24.6 12 25.333 12h1.72l2.28 4z" stroke="#000" stroke-width="2" stroke-linecap="round" stroke-linejoin="round"/>
</svg>
