<svg width="32" height="32" viewBox="0 0 32 32" fill="none" xmlns="http://www.w3.org/2000/svg">
    <path d="M16 18.667h1.333C18.8 18.667 20 17.467 20 16V2.667H8c-2 0-3.747 1.106-4.653 2.733" stroke="#000" stroke-width="2" stroke-linecap="round" stroke-linejoin="round"/>
    <path d="M2.667 22.667c0 2.213 1.786 4 4 4H8C8 25.2 9.2 24 10.667 24c1.466 0 2.666 1.2 2.666 2.667h5.334c0-1.467 1.2-2.667 2.666-2.667C22.8 24 24 25.2 24 26.667h1.333c2.214 0 4-1.787 4-4v-4h-4c-.733 0-1.333-.6-1.333-1.334v-4C24 12.6 24.6 12 25.333 12h1.72l-2.28-3.987a2.688 2.688 0 0 0-2.32-1.346H20V16c0 1.467-1.2 2.667-2.667 2.667H16" stroke="#000" stroke-width="2" stroke-linecap="round" stroke-linejoin="round"/>
    <path d="M10.667 29.333a2.667 2.667 0 1 0 0-5.333 2.667 2.667 0 0 0 0 5.333zM21.333 29.333a2.667 2.667 0 1 0 0-5.333 2.667 2.667 0 0 0 0 5.333zM29.333 16v2.667h-4c-.733 0-1.333-.6-1.333-1.334v-4C24 12.6 24.6 12 25.333 12h1.72l2.28 4zM8 19A5 5 0 1 0 8 9a5 5 0 0 0 0 10z" stroke="#000" stroke-width="2" stroke-linecap="round" stroke-linejoin="round"/>
    <path d="M8 16a2 2 0 1 0 0-4 2 2 0 0 0 0 4zM8 8.667V7.333M2.667 14H1.333M8 19.333v1.334M13.333 14h1.334" stroke="#000" stroke-width="2" stroke-linecap="round" stroke-linejoin="round"/>
</svg>
